<svg xmlns="http://www.w3.org/2000/svg" width="101.118" height="101.118" viewBox="0 0 101.118 101.118">
  <g id="desk" transform="translate(0 0)">
    <g id="그룹_3779" data-name="그룹 3779" transform="translate(35.391 58.986)">
      <path id="패스_1935" data-name="패스 1935" d="M255.168,280h-8.427A6.741,6.741,0,0,0,240,286.741h15.168Z" transform="translate(-224.832 -280)" fill="#f0faff"/>
      <path id="패스_1936" data-name="패스 1936" d="M176.427,280H168v6.741h15.168A6.741,6.741,0,0,0,176.427,280Z" transform="translate(-168 -280)" fill="#f0faff"/>
    </g>
    <path id="패스_1937" data-name="패스 1937" d="M88.895,312H8v10.112h5.056v23.594H19.8V322.112H40.021v23.594H73.727V322.112H93.951v23.594h6.741V322.112h5.056V312Z" transform="translate(-6.315 -246.273)" fill="#96561e"/>
    <g id="그룹_3780" data-name="그룹 3780" transform="translate(8.427 26.965)">
      <path id="패스_1938" data-name="패스 1938" d="M56.853,280H40v6.741H56.853Z" transform="translate(-40 -247.979)" fill="#ffb840"/>
      <path id="패스_1939" data-name="패스 1939" d="M140.986,138.112h12.086a1.685,1.685,0,0,0,1.192-2.877L147.03,128l-7.235,7.235A1.685,1.685,0,0,0,140.986,138.112Z" transform="translate(-118.379 -128)" fill="#ffb840"/>
    </g>
    <path id="패스_1940" data-name="패스 1940" d="M376,283.371a3.371,3.371,0,0,0,3.371,3.371h16.853V280H379.371A3.371,3.371,0,0,0,376,283.371Z" transform="translate(-296.791 -221.014)" fill="#3581c4"/>
    <path id="패스_1941" data-name="패스 1941" d="M379.371,248a3.371,3.371,0,0,0,0,6.741h16.853V248H379.371Z" transform="translate(-296.791 -195.755)" fill="#4b6378"/>
    <path id="패스_1942" data-name="패스 1942" d="M380.224,216H363.371a3.371,3.371,0,0,0,0,6.741h16.853Z" transform="translate(-284.161 -170.497)" fill="#3581c4"/>
    <path id="패스_1943" data-name="패스 1943" d="M248,38.335h47.189V8H248Z" transform="translate(-195.756 -6.314)" fill="#ffebdb"/>
    <rect id="사각형_1411" data-name="사각형 1411" width="10" height="10" transform="translate(58.789 10.446)" fill="#ffb840"/>
    <path id="패스_1944" data-name="패스 1944" d="M393.385,54.321l5.127,1.129,2.174-9.875L390.811,43.4l-1.327,6.025h3.9Z" transform="translate(-307.434 -34.257)" fill="#97daf7"/>
    <path id="패스_1945" data-name="패스 1945" d="M370.112,76.9V72H360V82.112h10.112Z" transform="translate(-284.161 -56.832)" fill="#ffebdb"/>
    <rect id="사각형_1412" data-name="사각형 1412" width="4" height="5" transform="translate(34.789 42.446)"/>
    <rect id="사각형_1413" data-name="사각형 1413" width="3.371" height="4.766" transform="translate(46.696 44.311) rotate(135)"/>
    <rect id="사각형_1414" data-name="사각형 1414" width="4.766" height="3.371" transform="translate(33.213 43.325) rotate(135)"/>
    <path id="패스_1946" data-name="패스 1946" d="M99.433,113.709H97.748v-5.056a1.685,1.685,0,0,0-1.685-1.685H79.209a5.044,5.044,0,0,0-1.314,9.917,4.968,4.968,0,0,0,.944,5.251,4.9,4.9,0,0,0-1,5.056H67.412v-5.056a1.685,1.685,0,0,0-1.685-1.685H57.3a8.4,8.4,0,0,0-6.741,3.423,8.4,8.4,0,0,0-6.741-3.423H35.391a1.685,1.685,0,0,0-1.685,1.685v5.056H26.965v-5.056a1.685,1.685,0,0,0-1.685-1.685H18.068L10.425,97.522,30,83.969l4.817,6.02L28.65,96.158a3.37,3.37,0,0,0,2.383,5.754H43.12A3.371,3.371,0,0,0,45.5,96.158l-7.17-7.17-6.682-8.352a1.687,1.687,0,0,0-2.275-.333L7.467,95.47a1.686,1.686,0,0,0-.639,1.919l7.687,23.061H8.427a1.685,1.685,0,0,0-1.685,1.685v5.056H1.685A1.685,1.685,0,0,0,0,128.876v10.112a1.685,1.685,0,0,0,1.685,1.685H5.056v21.909a1.685,1.685,0,0,0,1.685,1.685h6.741a1.685,1.685,0,0,0,1.685-1.685V140.674H32.021v21.909a1.685,1.685,0,0,0,1.685,1.685H67.412a1.685,1.685,0,0,0,1.685-1.685V140.674H85.951v21.909a1.685,1.685,0,0,0,1.685,1.685h6.741a1.685,1.685,0,0,0,1.685-1.685V140.674h3.371a1.685,1.685,0,0,0,1.685-1.685V115.394A1.685,1.685,0,0,0,99.433,113.709Zm-68.4-15.168L37.077,92.5l6.044,6.043Zm49.861,20.224a1.688,1.688,0,0,1,1.685-1.685H97.748v3.371H82.58A1.688,1.688,0,0,1,80.895,118.765Zm-1.685-8.427H94.377v3.371H79.209a1.685,1.685,0,0,1,0-3.371Zm1.685,15.168a1.688,1.688,0,0,1,1.685-1.685H97.748v3.371H82.58A1.688,1.688,0,0,1,80.895,125.506ZM57.3,123.821h6.741v3.371H52.555A5.048,5.048,0,0,1,57.3,123.821Zm-20.224,0h6.741a5.048,5.048,0,0,1,4.745,3.371H37.077Zm-26.965,0H23.594v3.371H10.112ZM11.8,160.9H8.427V140.674H11.8Zm53.93,0H35.391V137.3a1.688,1.688,0,0,1,1.685-1.685H64.042a1.688,1.688,0,0,1,1.685,1.685Zm26.965,0H89.321V140.674h3.371ZM97.748,137.3H69.1a5.062,5.062,0,0,0-5.056-5.056H37.077a5.062,5.062,0,0,0-5.056,5.056H3.371v-6.741H97.748Z" transform="translate(0 -63.149)"/>
    <path id="패스_1947" data-name="패스 1947" d="M288.874,0H241.685A1.685,1.685,0,0,0,240,1.685V32.021a1.685,1.685,0,0,0,1.685,1.685h47.189a1.685,1.685,0,0,0,1.685-1.685V1.685A1.685,1.685,0,0,0,288.874,0Zm-1.685,30.335H243.371V3.371h43.818Z" transform="translate(-189.441 0)"/>
    <path id="패스_1948" data-name="패스 1948" d="M273.685,53.482H283.8a1.685,1.685,0,0,0,1.685-1.685V41.685A1.685,1.685,0,0,0,283.8,40H273.685A1.685,1.685,0,0,0,272,41.685V51.8A1.685,1.685,0,0,0,273.685,53.482Zm1.685-10.112h6.741v6.741h-6.741Z" transform="translate(-214.7 -31.573)"/>
    <path id="패스_1949" data-name="패스 1949" d="M353.685,54.9H363.8a1.685,1.685,0,0,0,1.685-1.685V50.1l3.079.678a1.667,1.667,0,0,0,.364.04,1.685,1.685,0,0,0,1.644-1.323l2.174-9.875a1.685,1.685,0,0,0-1.283-2.008l-9.875-2.175a1.684,1.684,0,0,0-2.009,1.284l-1.035,4.7h-4.857A1.685,1.685,0,0,0,352,43.107V53.219A1.685,1.685,0,0,0,353.685,54.9Zm8.822-15.814,6.583,1.45-1.45,6.583-2.158-.475V43.107a1.685,1.685,0,0,0-1.685-1.685h-1.8Zm-7.136,5.7h6.741v6.741h-6.741Z" transform="translate(-277.847 -27.939)"/>
  </g>
</svg>
