<svg xmlns="http://www.w3.org/2000/svg" width="246.411" height="40" viewBox="0 0 246.411 40">
  <g id="그룹_3795" data-name="그룹 3795" transform="translate(-64.434 -1668.621)">
    <g id="그룹_3767" data-name="그룹 3767" transform="translate(112.255 1679.003)">
      <path id="패스_1922" data-name="패스 1922" d="M210.017,1689.581a7.262,7.262,0,0,0-10.11,0c-1.891,1.89-1.838,4.227-1.838,7.457s-.053,5.567,1.838,7.457a7.26,7.26,0,0,0,10.11,0c1.891-1.89,1.864-4.227,1.864-7.457S211.907,1691.472,210.017,1689.581Zm-2.361,13.118a3.588,3.588,0,0,1-2.68,1.076,3.659,3.659,0,0,1-2.711-1.076c-.813-.849-1.024-1.783-1.024-5.661s.21-4.811,1.024-5.661a3.656,3.656,0,0,1,2.711-1.076,3.586,3.586,0,0,1,2.68,1.076c.812.849,1.054,1.783,1.054,5.661S208.468,1701.851,207.655,1702.7Z" transform="translate(-172.488 -1687.528)" fill="#fff"/>
      <path id="패스_1923" data-name="패스 1923" d="M163.441,1693.682a8.416,8.416,0,0,1-.357,2.523,5.448,5.448,0,0,1-1.061,1.954,4.732,4.732,0,0,1-1.753,1.261,6.1,6.1,0,0,1-2.412.448h-3.35v6.891H151.5v-19.235h6.361a6.108,6.108,0,0,1,2.412.447,4.813,4.813,0,0,1,1.753,1.249,5.3,5.3,0,0,1,1.061,1.94A8.416,8.416,0,0,1,163.441,1693.682Zm-2.9.027a3.585,3.585,0,0,0-.67-2.252,2.512,2.512,0,0,0-2.121-.868h-3.239v6.213h3.239a2.53,2.53,0,0,0,2.121-.855A3.523,3.523,0,0,0,160.538,1693.708Z" transform="translate(-151.497 -1687.523)" fill="#fff"/>
      <path id="패스_1924" data-name="패스 1924" d="M252.243,1706.758v-19.235H255.4v19.235Z" transform="translate(-196.906 -1687.523)" fill="#fff"/>
      <path id="패스_1925" data-name="패스 1925" d="M297.449,1706.758l-6.855-13.212v13.212h-3.146v-19.235h3.369l6.767,13.022v-13.022h3.008v19.235Z" transform="translate(-212.774 -1687.523)" fill="#fff"/>
      <path id="패스_1926" data-name="패스 1926" d="M345.09,1690.779v15.979h-3.158v-15.979h-4.573v-3.256h12.259v3.256Z" transform="translate(-235.27 -1687.523)" fill="#fff"/>
      <path id="패스_1927" data-name="패스 1927" d="M407.3,1706.758l-1.028-3.69h-6.3l-1.027,3.69h-3.092l5.56-19.235h3.481l5.56,19.235Zm-4.176-14.949-2.256,8.112h4.511Z" transform="translate(-261.634 -1687.523)" fill="#fff"/>
      <path id="패스_1928" data-name="패스 1928" d="M451.714,1706.758h-3.586l-5.247-19.235h3.266l3.841,14.677,3.819-14.677h3.109Z" transform="translate(-282.832 -1687.523)" fill="#fff"/>
      <path id="패스_1929" data-name="패스 1929" d="M492.018,1706.758v-19.235h11.551v3.174h-8.4v4.476h7.391v3.147h-7.391v5.263h8.4v3.174Z" transform="translate(-304.979 -1687.523)" fill="#fff"/>
    </g>
    <g id="그룹_3768" data-name="그룹 3768" transform="translate(64.434 1668.621)">
      <path id="패스_1930" data-name="패스 1930" d="M91.823,1698.884q-.815,1.78-1.649,3.3A18.639,18.639,0,0,1,88.3,1705,14.823,14.823,0,0,1,86,1707.269a11.894,11.894,0,0,1-2.877,1.661,10.543,10.543,0,0,1-4.652.817,12.377,12.377,0,0,1-8.265-3.815,10.62,10.62,0,0,1-2.411-4.077,11.939,11.939,0,0,1-.617-3.273,14.835,14.835,0,0,1,.226-3.227,18.688,18.688,0,0,1,.9-3.258q.611-1.63,1.424-3.408.8-1.738,1.65-3.3a18.667,18.667,0,0,1,1.9-2.848,14.778,14.778,0,0,1,2.292-2.273,11.861,11.861,0,0,1,2.877-1.66,10.533,10.533,0,0,1,4.652-.817,12.378,12.378,0,0,1,8.265,3.814,10.643,10.643,0,0,1,2.411,4.077,12.009,12.009,0,0,1,.617,3.274,14.9,14.9,0,0,1-.226,3.226,18.76,18.76,0,0,1-.919,3.3Q92.619,1697.146,91.823,1698.884Zm-3.217-1.481q.51-1.114,1.057-2.436a19.233,19.233,0,0,0,.891-2.709,12.548,12.548,0,0,0,.371-2.78,7.419,7.419,0,0,0-.434-2.674,7.276,7.276,0,0,0-1.707-2.755,8.8,8.8,0,0,0-5.86-2.7,7.224,7.224,0,0,0-3.194.494,7.351,7.351,0,0,0-2.3,1.41,12.437,12.437,0,0,0-1.86,2.093,18.49,18.49,0,0,0-1.468,2.443c-.451.894-.813,1.649-1.153,2.392s-.693,1.554-1.057,2.436a18.425,18.425,0,0,0-.881,2.686,12.529,12.529,0,0,0-.36,2.756,7.4,7.4,0,0,0,.434,2.674,7.269,7.269,0,0,0,1.706,2.756,8.8,8.8,0,0,0,5.861,2.7,7.231,7.231,0,0,0,3.194-.494,7.355,7.355,0,0,0,2.3-1.411,12.543,12.543,0,0,0,1.849-2.07,18.622,18.622,0,0,0,1.458-2.42Q88.094,1698.516,88.606,1697.4Z" transform="translate(-65.667 -1672.744)" fill="#fff"/>
      <path id="패스_1931" data-name="패스 1931" d="M68.115,1697.752l-3.681-3.228,4.8.651Z" transform="translate(-64.434 -1680.296)" fill="#fff"/>
      <path id="패스_1932" data-name="패스 1932" d="M111.265,1715.57l4.871.491-3.751-3.068Z" transform="translate(-85.542 -1688.621)" fill="#fff"/>
      <path id="패스_1933" data-name="패스 1933" d="M104.687,1675.584l1.512-6.963-4.1,5.866Z" transform="translate(-81.411 -1668.621)" fill="#fff"/>
      <path id="패스_1934" data-name="패스 1934" d="M80.584,1734.011l-3.392,3.515.88-4.775Z" transform="translate(-70.184 -1697.526)" fill="#fff"/>
    </g>
  </g>
</svg>
