<svg xmlns="http://www.w3.org/2000/svg" width="101.118" height="101.118" viewBox="0 0 101.118 101.118">
  <g id="studying" transform="translate(0 0)">
    <path id="패스_1966" data-name="패스 1966" d="M8,232v6.741h5.056v43.818H19.8V238.741H93.951v43.818h6.741V238.741h5.056V232Z" transform="translate(-6.315 -183.126)" fill="#96561e"/>
    <rect id="사각형_1436" data-name="사각형 1436" width="27" height="17" transform="translate(37.133 32.087)" fill="#97daf7"/>
    <path id="패스_1967" data-name="패스 1967" d="M174.837,44.83A20.214,20.214,0,0,0,159.3,28.717a11.8,11.8,0,1,0-15.412,0h0A20.213,20.213,0,0,0,128.351,44.83L128,46.762l3.371,8.427h6.741V38.335h26.965V55.189h6.741l3.371-8.427Z" transform="translate(-101.035 -6.315)" fill="#ffebdb"/>
    <path id="패스_1968" data-name="패스 1968" d="M394.112,176.427V168H384v13.482h10.112Z" transform="translate(-303.105 -132.609)" fill="#ffb840"/>
    <path id="패스_1969" data-name="패스 1969" d="M28.224,200H11.371a3.371,3.371,0,0,0,0,6.741H28.224Z" transform="translate(-6.315 -157.868)" fill="#4b6378"/>
    <g id="그룹_3783" data-name="그룹 3783" transform="translate(1.685 28.65)">
      <path id="패스_1970" data-name="패스 1970" d="M28.224,168H11.371a3.371,3.371,0,1,0,0,6.741H28.224Z" transform="translate(-8 -161.259)" fill="#ffb840"/>
      <path id="패스_1971" data-name="패스 1971" d="M44.224,139.371A3.371,3.371,0,0,0,40.853,136H24v6.741H40.853A3.371,3.371,0,0,0,44.224,139.371Z" transform="translate(-20.629 -136)" fill="#ffb840"/>
    </g>
    <path id="패스_1972" data-name="패스 1972" d="M177.706,264H150.741A6.741,6.741,0,0,0,144,270.741v6.741h3.745v-.01l2.511,25.426a5.01,5.01,0,0,0-1.2,3.234v1.685h10.112v-1.685a5.01,5.01,0,0,0-1.2-3.234l2.511-25.426v.01h7.49v-.01l2.787,25.091a5.065,5.065,0,0,1,1.584-1.074,5.052,5.052,0,0,0-3.059,4.643v1.685h10.112v-1.685a5.052,5.052,0,0,0-3.059-4.643,5.061,5.061,0,0,1,1.584,1.074l2.787-25.091v.01h3.745v-6.741A6.741,6.741,0,0,0,177.706,264Z" transform="translate(-113.665 -208.385)" fill="#ffebdb"/>
    <path id="패스_1973" data-name="패스 1973" d="M99.433,47.189H92.692V45.5h3.371a1.684,1.684,0,0,0,1.685-1.685V38.762a1.684,1.684,0,0,0-1.685-1.685H92.692V35.391a1.684,1.684,0,0,0-1.685-1.685H80.895a1.684,1.684,0,0,0-1.685,1.685v11.8H73.272l2.446-6.116a1.687,1.687,0,0,0,.092-.928l-.351-1.931A21.819,21.819,0,0,0,61.336,21.55a13.482,13.482,0,1,0-21.553,0A21.815,21.815,0,0,0,25.66,38.212l-.352,1.932a1.687,1.687,0,0,0,.092.928l2.446,6.116H23.594V36.766a5.043,5.043,0,0,0-1.685-9.8H5.056A1.684,1.684,0,0,0,3.371,28.65v5.366a5.009,5.009,0,0,0-2.056,8.116,4.942,4.942,0,0,0-.807,5.539A1.676,1.676,0,0,0,0,48.874v6.741A1.684,1.684,0,0,0,1.685,57.3H5.056V99.433a1.684,1.684,0,0,0,1.685,1.685h6.741a1.684,1.684,0,0,0,1.685-1.685V57.3H30.379a8.344,8.344,0,0,0-1.728,5.056v5.056H25.28A1.684,1.684,0,0,0,23.594,69.1v32.021h3.371V70.783h5.589L34.847,94a6.7,6.7,0,0,0-1.141,3.745v1.685a1.684,1.684,0,0,0,1.685,1.685H45.5a1.684,1.684,0,0,0,1.685-1.685V97.748A6.7,6.7,0,0,0,46.047,94l2.292-23.219H52.8L55.339,93.67a6.676,6.676,0,0,0-1.409,4.077v1.685a1.684,1.684,0,0,0,1.685,1.685H65.727a1.684,1.684,0,0,0,1.685-1.685V97.748A6.675,6.675,0,0,0,66,93.67l2.54-22.887h5.611v30.336h3.371V69.1a1.684,1.684,0,0,0-1.685-1.685H72.468V62.356A8.344,8.344,0,0,0,70.74,57.3H85.951V99.433a1.684,1.684,0,0,0,1.685,1.685h6.741a1.684,1.684,0,0,0,1.685-1.685V57.3h3.371a1.684,1.684,0,0,0,1.685-1.685V48.874A1.684,1.684,0,0,0,99.433,47.189Zm-5.056-6.741v1.685H92.692V40.447Zm-11.8-3.371h6.741V47.189H82.58ZM50.559,3.371A10.112,10.112,0,1,1,40.447,13.482,10.123,10.123,0,0,1,50.559,3.371Zm-21.85,36.9.267-1.455A18.458,18.458,0,0,1,42.47,24.243a13.381,13.381,0,0,0,16.179,0,18.462,18.462,0,0,1,13.5,14.575l.265,1.455-2.767,6.916H65.727V32.021a1.684,1.684,0,0,0-1.685-1.685H37.077a1.684,1.684,0,0,0-1.685,1.685V47.189H31.477Zm33.647,6.917H38.762V33.706H62.356ZM3.371,45.5a1.686,1.686,0,0,1,1.685-1.685H20.224v3.371H5.056A1.686,1.686,0,0,1,3.371,45.5ZM6.741,30.335H21.909a1.685,1.685,0,0,1,0,3.371H6.741ZM5.056,37.077H20.224v3.371H5.056a1.685,1.685,0,1,1,0-3.371ZM11.8,97.748H8.427V57.3H11.8ZM35.762,68.994a4.654,4.654,0,0,1,1.277-3.484,4.8,4.8,0,0,1,6.817,0,4.62,4.62,0,0,1,1.282,3.412L42.909,91.487a6.543,6.543,0,0,0-4.923,0Zm1.315,28.754a3.371,3.371,0,1,1,6.741,0ZM55.985,68.994a4.654,4.654,0,0,1,1.277-3.484,4.8,4.8,0,0,1,6.817,0A4.613,4.613,0,0,1,65.363,68.9l-2.5,22.5a6.252,6.252,0,0,0-4.384,0ZM57.3,97.748a3.371,3.371,0,1,1,6.741,0ZM69.1,62.356v5.056h-.481a8.044,8.044,0,0,0-15.88,0H48.393a8.046,8.046,0,0,0-15.883,0h-.49V62.356A5.062,5.062,0,0,1,37.077,57.3H64.042A5.062,5.062,0,0,1,69.1,62.356ZM92.692,97.748H89.321V57.3h3.371ZM97.748,53.93H3.371V50.559H97.748Z" transform="translate(0 0)"/>
    <rect id="사각형_1437" data-name="사각형 1437" width="10" height="3" transform="translate(45.133 39.087)"/>
    <rect id="사각형_1438" data-name="사각형 1438" width="3" height="5" transform="translate(86.133 25.087)"/>
    <rect id="사각형_1439" data-name="사각형 1439" width="3" height="7" transform="translate(81.133 22.087)"/>
  </g>
</svg>
